<svg xmlns="http://www.w3.org/2000/svg" xmlns:xlink="http://www.w3.org/1999/xlink" xmlns:lucid="lucid" width="951.5" height="393.8"><g transform="translate(-509 -726.1999999999999)" lucid:page-tab-id="0_0"><path d="M640 799.8h200v120H640z" stroke="#000" stroke-width="2" fill="#fff"/><use xlink:href="#a" transform="matrix(1,0,0,1,645,804.8) translate(41.14999999999999 58.6)"/><path d="M1000 800h200v120h-200z" stroke="#000" stroke-width="2" fill="#fff"/><use xlink:href="#b" transform="matrix(1,0,0,1,1005,805) translate(19.67500000000001 58.6)"/><path d="M1240.5 779.9h200v159.8h-200z" stroke="#000" stroke-width="2" fill="#fff"/><use xlink:href="#c" transform="matrix(1,0,0,1,1245.5,784.8999999999767) translate(14.100000000000009 142.8)"/><path d="M1260.5 799.8h160v26.6h-160z" stroke="#000" stroke-width="2" fill="#fff"/><use xlink:href="#d" transform="matrix(1,0,0,1,1265.5,804.8000000000466) translate(20.199999999999996 14.4)"/><path d="M1260.5 826.4h160V853h-160z" stroke="#000" stroke-width="2" fill="#fff"/><use xlink:href="#e" transform="matrix(1,0,0,1,1265.5,831.4000000000467) translate(4.700000000000003 14.4)"/><path d="M1260.5 853h160v26.6h-160z" stroke="#000" stroke-width="2" fill="#fff"/><use xlink:href="#f" transform="matrix(1,0,0,1,1265.5,858.0000000000466) translate(2.125 14.4)"/><path d="M1260.5 879.6h160v26.6h-160z" stroke="#000" stroke-width="2" fill="#fff"/><use xlink:href="#g" transform="matrix(1,0,0,1,1265.5,884.6000000000465) translate(7.974999999999994 14.4)"/><path d="M980.5 859.1v2h-16.55v-2zM842 860.8v-2h34.05v2z"/><path d="M842.03 860.8H841v-2h1.03zM995.76 860.1l-14.26 4.64v-9.28z"/><path d="M999 860.1l-18.5 6v-12zm-16.5 3.26l10.03-3.26-10.03-3.26z"/><use xlink:href="#h" transform="matrix(1,0,0,1,876.05,838.3499999999883) translate(0.005000000000002558 14.4)"/><use xlink:href="#i" transform="matrix(1,0,0,1,876.05,838.3499999999883) translate(42.90500000000001 14.4)"/><use xlink:href="#j" transform="matrix(1,0,0,1,876.05,838.3499999999883) translate(15.005000000000003 36)"/><path d="M1101 798h-2v-38.2H964.05v-2H1101zm-224.85-38.2H741v20.5h-2v-22.5h137.15z"/><path d="M1101 799h-2v-1.03h2zM740 795.56l-4.64-14.26h9.28z"/><path d="M740 798.8l-6-18.5h12zm-3.26-16.5l3.26 10.03 3.26-10.03z"/><use xlink:href="#h" transform="matrix(1,0,0,1,876.15,737.1999999999999) translate(0.005000000000002558 14.4)"/><use xlink:href="#i" transform="matrix(1,0,0,1,876.15,737.1999999999999) translate(42.90500000000001 14.4)"/><use xlink:href="#k" transform="matrix(1,0,0,1,876.15,737.1999999999999) translate(22.955000000000005 36)"/><use xlink:href="#l" transform="matrix(1,0,0,1,876.15,737.1999999999999) translate(27.955000000000005 36)"/><path d="M820 960h200v140H820z" stroke="#000" stroke-width="2" fill="#fff"/><use xlink:href="#m" transform="matrix(1,0,0,1,825,965) translate(62.525 122.80000000000001)"/><path d="M840 980.1h160v26.6H840z" stroke="#000" stroke-width="2" fill="#fff"/><use xlink:href="#n" transform="matrix(1,0,0,1,845,985.1000000000234) translate(33.099999999999994 14.4)"/><path d="M840 1006.7h160v26.6H840z" stroke="#000" stroke-width="2" fill="#fff"/><use xlink:href="#o" transform="matrix(1,0,0,1,845,1011.7000000000235) translate(27.549999999999997 14.4)"/><use xlink:href="#p" transform="matrix(1,0,0,1,845,1011.7000000000235) translate(70.5 14.4)"/><path d="M840 1033.3h160v26.6H840z" stroke="#000" stroke-width="2" fill="#fff"/><use xlink:href="#q" transform="matrix(1,0,0,1,845,1038.3000000000234) translate(27.025 14.4)"/><use xlink:href="#r" transform="matrix(1,0,0,1,845,1038.3000000000234) translate(67.975 14.4)"/><path d="M800.5 1029v2h-16.55v-2zM741 993.3h-2v-71.5h2z"/><path d="M741 921.83h-2v-1.03h2zM815.76 1030l-14.26 4.64v-9.28z"/><path d="M819 1030l-18.5 6v-12zm-16.5 3.26l10.03-3.26-10.03-3.26z"/><use xlink:href="#h" transform="matrix(1,0,0,1,696.05,993.3) translate(0.005000000000002558 14.4)"/><use xlink:href="#i" transform="matrix(1,0,0,1,696.05,993.3) translate(42.90500000000001 14.4)"/><use xlink:href="#s" transform="matrix(1,0,0,1,696.05,993.3) translate(11.480000000000004 36)"/><path d="M1042.08 1031H1022v-2h20.08zm58.92-37.6h-2v-53.9h2z"/><path d="M1022.03 1031H1021v-2h1.03zM1104.64 938.5h-9.28l4.64-14.26z"/><path d="M1106 939.5h-12l6-18.5zm-9.26-2h6.52l-3.26-10.03z"/><use xlink:href="#h" transform="matrix(1,0,0,1,1042.075,993.4) translate(13.980000000000004 14.4)"/><use xlink:href="#i" transform="matrix(1,0,0,1,1042.075,993.4) translate(56.88000000000001 14.4)"/><use xlink:href="#t" transform="matrix(1,0,0,1,1042.075,993.4) translate(0.005000000000002558 36)"/><use xlink:href="#u" transform="matrix(1,0,0,1,1042.075,993.4) translate(50.90500000000001 36)"/><path d="M1202 839.4h18.25v-.1h.75" stroke="#000" stroke-width="2" fill="none"/><path d="M1202.03 840.4H1201v-2h1.03z"/><path d="M1236.26 839.3l-14.26 4.64v-9.27z" stroke="#000" stroke-width="2"/><path d="M1238.5 879.65h-18.25v.1h-.75" stroke="#000" stroke-width="2" fill="none"/><path d="M1239.5 880.65h-1.03v-2h1.03z"/><path d="M1204.24 879.75l14.26-4.63v9.27z" stroke="#000" stroke-width="2"/><path d="M638 883.93h-79.5" stroke="#000" stroke-width="2" fill="none"/><path d="M639 884.93h-1.03v-2H639z"/><path d="M543.24 883.93l14.26-4.64v9.26z" stroke="#000" stroke-width="2"/><g><use xlink:href="#h" transform="matrix(1,0,0,1,545.55,887.9263529682197) translate(0.005000000000002558 14.4)"/><use xlink:href="#i" transform="matrix(1,0,0,1,545.55,887.9263529682197) translate(42.90500000000001 14.4)"/><use xlink:href="#v" transform="matrix(1,0,0,1,545.55,887.9263529682197) translate(28.980000000000004 36)"/></g><path d="M620.5 838.47H541" stroke="#000" stroke-width="2" fill="none"/><path d="M635.76 838.47l-14.26 4.64v-9.27z" stroke="#000" stroke-width="2"/><path d="M541.03 838.47H540" stroke="#000" stroke-width="2" fill="none"/><g><use xlink:href="#h" transform="matrix(1,0,0,1,545.55,791.2701067563269) translate(0.005000000000002558 14.4)"/><use xlink:href="#i" transform="matrix(1,0,0,1,545.55,791.2701067563269) translate(42.90500000000001 14.4)"/><use xlink:href="#w" transform="matrix(1,0,0,1,545.55,791.2701067563269) translate(24.980000000000004 36)"/></g><defs><path d="M240 0l2-218c-23 76-54 145-80 218h-23L58-218 59 0H30v-248h44l77 211c21-75 51-140 76-211h43V0h-30" id="x"/><path d="M141-36C126-15 110 5 73 4 37 3 15-17 15-53c-1-64 63-63 125-63 3-35-9-54-41-54-24 1-41 7-42 31l-33-3c5-37 33-52 76-52 45 0 72 20 72 64v82c-1 20 7 32 28 27v20c-31 9-61-2-59-35zM48-53c0 20 12 33 32 33 41-3 63-29 60-74-43 2-92-5-92 41" id="y"/><path d="M24-231v-30h32v30H24zM24 0v-190h32V0H24" id="z"/><path d="M117-194c89-4 53 116 60 194h-32v-121c0-31-8-49-39-48C34-167 62-67 57 0H25l-1-190h30c1 10-1 24 2 32 11-22 29-35 61-36" id="A"/><path d="M205 0l-28-72H64L36 0H1l101-248h38L239 0h-34zm-38-99l-47-123c-12 45-31 82-46 123h93" id="B"/><path d="M96-169c-40 0-48 33-48 73s9 75 48 75c24 0 41-14 43-38l32 2c-6 37-31 61-74 61-59 0-76-41-82-99-10-93 101-131 147-64 4 7 5 14 7 22l-32 3c-4-21-16-35-41-35" id="C"/><path d="M59-47c-2 24 18 29 38 22v24C64 9 27 4 27-40v-127H5v-23h24l9-43h21v43h35v23H59v120" id="D"/><path d="M108 0H70L1-190h34L89-25l56-165h34" id="E"/><path d="M179-190L93 31C79 59 56 82 12 73V49c39 6 53-20 64-50L1-190h34L92-34l54-156h33" id="F"/><path d="M87 75C49 33 22-17 22-94c0-76 28-126 65-167h31c-38 41-64 92-64 168S80 34 118 75H87" id="G"/><path d="M33-261c38 41 65 92 65 168S71 34 33 75H2C39 34 66-17 66-93S39-220 2-261h31" id="H"/><g id="a"><use transform="matrix(0.05,0,0,0.05,0,0)" xlink:href="#x"/><use transform="matrix(0.05,0,0,0.05,14.950000000000001,0)" xlink:href="#y"/><use transform="matrix(0.05,0,0,0.05,24.950000000000003,0)" xlink:href="#z"/><use transform="matrix(0.05,0,0,0.05,28.900000000000002,0)" xlink:href="#A"/><use transform="matrix(0.05,0,0,0.05,38.900000000000006,0)" xlink:href="#B"/><use transform="matrix(0.05,0,0,0.05,50.900000000000006,0)" xlink:href="#C"/><use transform="matrix(0.05,0,0,0.05,59.900000000000006,0)" xlink:href="#D"/><use transform="matrix(0.05,0,0,0.05,64.9,0)" xlink:href="#z"/><use transform="matrix(0.05,0,0,0.05,68.85000000000001,0)" xlink:href="#E"/><use transform="matrix(0.05,0,0,0.05,77.85000000000001,0)" xlink:href="#z"/><use transform="matrix(0.05,0,0,0.05,81.80000000000001,0)" xlink:href="#D"/><use transform="matrix(0.05,0,0,0.05,86.80000000000001,0)" xlink:href="#F"/><use transform="matrix(0.05,0,0,0.05,95.80000000000001,0)" xlink:href="#G"/><use transform="matrix(0.05,0,0,0.05,101.75000000000001,0)" xlink:href="#H"/></g><path d="M233-177c-1 41-23 64-60 70L243 0h-38l-65-103H63V0H30v-248c88 3 205-21 203 71zM63-129c60-2 137 13 137-47 0-61-80-42-137-45v92" id="I"/><path d="M100-194c63 0 86 42 84 106H49c0 40 14 67 53 68 26 1 43-12 49-29l28 8c-11 28-37 45-77 45C44 4 14-33 15-96c1-61 26-98 85-98zm52 81c6-60-76-77-97-28-3 7-6 17-6 28h103" id="J"/><path d="M100-194c62-1 85 37 85 99 1 63-27 99-86 99S16-35 15-95c0-66 28-99 85-99zM99-20c44 1 53-31 53-75 0-43-8-75-51-75s-53 32-53 75 10 74 51 75" id="K"/><path d="M114-163C36-179 61-72 57 0H25l-1-190h30c1 12-1 29 2 39 6-27 23-49 58-41v29" id="L"/><path d="M85-194c31 0 48 13 60 33l-1-100h32l1 261h-30c-2-10 0-23-3-31C134-8 116 4 85 4 32 4 16-35 15-94c0-66 23-100 70-100zm9 24c-40 0-46 34-46 75 0 40 6 74 45 74 42 0 51-32 51-76 0-42-9-74-50-73" id="M"/><path d="M177-190C167-65 218 103 67 71c-23-6-38-20-44-43l32-5c15 47 100 32 89-28v-30C133-14 115 1 83 1 29 1 15-40 15-95c0-56 16-97 71-98 29-1 48 16 59 35 1-10 0-23 2-32h30zM94-22c36 0 50-32 50-73 0-42-14-75-50-75-39 0-46 34-46 75s6 73 46 73" id="N"/><g id="b"><use transform="matrix(0.05,0,0,0.05,0,0)" xlink:href="#I"/><use transform="matrix(0.05,0,0,0.05,12.950000000000001,0)" xlink:href="#J"/><use transform="matrix(0.05,0,0,0.05,22.950000000000003,0)" xlink:href="#C"/><use transform="matrix(0.05,0,0,0.05,31.950000000000003,0)" xlink:href="#K"/><use transform="matrix(0.05,0,0,0.05,41.95,0)" xlink:href="#L"/><use transform="matrix(0.05,0,0,0.05,47.900000000000006,0)" xlink:href="#M"/><use transform="matrix(0.05,0,0,0.05,57.900000000000006,0)" xlink:href="#z"/><use transform="matrix(0.05,0,0,0.05,61.85,0)" xlink:href="#A"/><use transform="matrix(0.05,0,0,0.05,71.85000000000001,0)" xlink:href="#N"/><use transform="matrix(0.05,0,0,0.05,81.85000000000001,0)" xlink:href="#B"/><use transform="matrix(0.05,0,0,0.05,93.85000000000001,0)" xlink:href="#C"/><use transform="matrix(0.05,0,0,0.05,102.85000000000001,0)" xlink:href="#D"/><use transform="matrix(0.05,0,0,0.05,107.85000000000001,0)" xlink:href="#z"/><use transform="matrix(0.05,0,0,0.05,111.80000000000001,0)" xlink:href="#E"/><use transform="matrix(0.05,0,0,0.05,120.80000000000001,0)" xlink:href="#z"/><use transform="matrix(0.05,0,0,0.05,124.75,0)" xlink:href="#D"/><use transform="matrix(0.05,0,0,0.05,129.75,0)" xlink:href="#F"/><use transform="matrix(0.05,0,0,0.05,138.75,0)" xlink:href="#G"/><use transform="matrix(0.05,0,0,0.05,144.7,0)" xlink:href="#H"/></g><path d="M30-248c118-7 216 8 213 122C240-48 200 0 122 0H30v-248zM63-27c89 8 146-16 146-99s-60-101-146-95v194" id="O"/><path d="M30 0v-248h33v221h125V0H30" id="P"/><path d="M185-189c-5-48-123-54-124 2 14 75 158 14 163 119 3 78-121 87-175 55-17-10-28-26-33-46l33-7c5 56 141 63 141-1 0-78-155-14-162-118-5-82 145-84 179-34 5 7 8 16 11 25" id="Q"/><g id="c"><use transform="matrix(0.05,0,0,0.05,0,0)" xlink:href="#O"/><use transform="matrix(0.05,0,0,0.05,12.950000000000001,0)" xlink:href="#y"/><use transform="matrix(0.05,0,0,0.05,22.950000000000003,0)" xlink:href="#D"/><use transform="matrix(0.05,0,0,0.05,27.950000000000003,0)" xlink:href="#y"/><use transform="matrix(0.05,0,0,0.05,37.95,0)" xlink:href="#P"/><use transform="matrix(0.05,0,0,0.05,47.95,0)" xlink:href="#K"/><use transform="matrix(0.05,0,0,0.05,57.95,0)" xlink:href="#N"/><use transform="matrix(0.05,0,0,0.05,67.95,0)" xlink:href="#N"/><use transform="matrix(0.05,0,0,0.05,77.95,0)" xlink:href="#z"/><use transform="matrix(0.05,0,0,0.05,81.9,0)" xlink:href="#A"/><use transform="matrix(0.05,0,0,0.05,91.9,0)" xlink:href="#N"/><use transform="matrix(0.05,0,0,0.05,101.9,0)" xlink:href="#Q"/><use transform="matrix(0.05,0,0,0.05,113.9,0)" xlink:href="#J"/><use transform="matrix(0.05,0,0,0.05,123.9,0)" xlink:href="#L"/><use transform="matrix(0.05,0,0,0.05,129.85,0)" xlink:href="#E"/><use transform="matrix(0.05,0,0,0.05,138.85,0)" xlink:href="#z"/><use transform="matrix(0.05,0,0,0.05,142.79999999999998,0)" xlink:href="#C"/><use transform="matrix(0.05,0,0,0.05,151.79999999999998,0)" xlink:href="#J"/></g><path d="M63-220v92h138v28H63V0H30v-248h175v28H63" id="R"/><path d="M24 0v-261h32V0H24" id="S"/><path d="M212-179c-10-28-35-45-73-45-59 0-87 40-87 99 0 60 29 101 89 101 43 0 62-24 78-52l27 14C228-24 195 4 139 4 59 4 22-46 18-125c-6-104 99-153 187-111 19 9 31 26 39 46" id="T"/><g id="d"><use transform="matrix(0.05,0,0,0.05,0,0)" xlink:href="#R"/><use transform="matrix(0.05,0,0,0.05,10.950000000000001,0)" xlink:href="#z"/><use transform="matrix(0.05,0,0,0.05,14.9,0)" xlink:href="#S"/><use transform="matrix(0.05,0,0,0.05,18.85,0)" xlink:href="#D"/><use transform="matrix(0.05,0,0,0.05,23.85,0)" xlink:href="#J"/><use transform="matrix(0.05,0,0,0.05,33.85,0)" xlink:href="#L"/><use transform="matrix(0.05,0,0,0.05,39.800000000000004,0)" xlink:href="#z"/><use transform="matrix(0.05,0,0,0.05,43.75000000000001,0)" xlink:href="#A"/><use transform="matrix(0.05,0,0,0.05,53.75,0)" xlink:href="#N"/><use transform="matrix(0.05,0,0,0.05,63.75,0)" xlink:href="#T"/><use transform="matrix(0.05,0,0,0.05,76.7,0)" xlink:href="#S"/><use transform="matrix(0.05,0,0,0.05,80.65,0)" xlink:href="#z"/><use transform="matrix(0.05,0,0,0.05,84.60000000000001,0)" xlink:href="#J"/><use transform="matrix(0.05,0,0,0.05,94.60000000000001,0)" xlink:href="#A"/><use transform="matrix(0.05,0,0,0.05,104.60000000000001,0)" xlink:href="#D"/></g><path d="M190 0L58-211 59 0H30v-248h39L202-35l-2-213h31V0h-41" id="U"/><path d="M84 4C-5 8 30-112 23-190h32v120c0 31 7 50 39 49 72-2 45-101 50-169h31l1 190h-30c-1-10 1-25-2-33-11 22-28 36-60 37" id="V"/><path d="M206 0h-36l-40-164L89 0H53L-1-190h32L70-26l43-164h34l41 164 42-164h31" id="W"/><path d="M143 0L79-87 56-68V0H24v-261h32v163l83-92h37l-77 82L181 0h-38" id="X"/><path d="M33 0v-38h34V0H33" id="Y"/><g id="e"><use transform="matrix(0.05,0,0,0.05,0,0)" xlink:href="#U"/><use transform="matrix(0.05,0,0,0.05,12.950000000000001,0)" xlink:href="#J"/><use transform="matrix(0.05,0,0,0.05,22.950000000000003,0)" xlink:href="#V"/><use transform="matrix(0.05,0,0,0.05,32.95,0)" xlink:href="#L"/><use transform="matrix(0.05,0,0,0.05,38.900000000000006,0)" xlink:href="#y"/><use transform="matrix(0.05,0,0,0.05,48.900000000000006,0)" xlink:href="#S"/><use transform="matrix(0.05,0,0,0.05,52.85,0)" xlink:href="#U"/><use transform="matrix(0.05,0,0,0.05,65.80000000000001,0)" xlink:href="#J"/><use transform="matrix(0.05,0,0,0.05,75.80000000000001,0)" xlink:href="#D"/><use transform="matrix(0.05,0,0,0.05,80.80000000000001,0)" xlink:href="#W"/><use transform="matrix(0.05,0,0,0.05,93.75000000000001,0)" xlink:href="#K"/><use transform="matrix(0.05,0,0,0.05,103.75,0)" xlink:href="#L"/><use transform="matrix(0.05,0,0,0.05,109.7,0)" xlink:href="#X"/><use transform="matrix(0.05,0,0,0.05,118.7,0)" xlink:href="#T"/><use transform="matrix(0.05,0,0,0.05,131.65,0)" xlink:href="#S"/><use transform="matrix(0.05,0,0,0.05,135.6,0)" xlink:href="#Y"/></g><g id="f"><use transform="matrix(0.05,0,0,0.05,0,0)" xlink:href="#Q"/><use transform="matrix(0.05,0,0,0.05,12,0)" xlink:href="#D"/><use transform="matrix(0.05,0,0,0.05,17,0)" xlink:href="#L"/><use transform="matrix(0.05,0,0,0.05,22.95,0)" xlink:href="#K"/><use transform="matrix(0.05,0,0,0.05,32.95,0)" xlink:href="#X"/><use transform="matrix(0.05,0,0,0.05,41.95,0)" xlink:href="#J"/><use transform="matrix(0.05,0,0,0.05,51.95,0)" xlink:href="#T"/><use transform="matrix(0.05,0,0,0.05,64.9,0)" xlink:href="#K"/><use transform="matrix(0.05,0,0,0.05,74.9,0)" xlink:href="#V"/><use transform="matrix(0.05,0,0,0.05,84.9,0)" xlink:href="#A"/><use transform="matrix(0.05,0,0,0.05,94.9,0)" xlink:href="#D"/><use transform="matrix(0.05,0,0,0.05,99.9,0)" xlink:href="#z"/><use transform="matrix(0.05,0,0,0.05,103.85000000000001,0)" xlink:href="#A"/><use transform="matrix(0.05,0,0,0.05,113.85000000000001,0)" xlink:href="#N"/><use transform="matrix(0.05,0,0,0.05,123.85000000000001,0)" xlink:href="#T"/><use transform="matrix(0.05,0,0,0.05,136.8,0)" xlink:href="#S"/><use transform="matrix(0.05,0,0,0.05,140.75,0)" xlink:href="#Y"/></g><path d="M127-220V0H93v-220H8v-28h204v28h-85" id="Z"/><g id="g"><use transform="matrix(0.05,0,0,0.05,0,0)" xlink:href="#Z"/><use transform="matrix(0.05,0,0,0.05,10.3,0)" xlink:href="#V"/><use transform="matrix(0.05,0,0,0.05,20.3,0)" xlink:href="#L"/><use transform="matrix(0.05,0,0,0.05,26.25,0)" xlink:href="#A"/><use transform="matrix(0.05,0,0,0.05,36.25,0)" xlink:href="#O"/><use transform="matrix(0.05,0,0,0.05,49.2,0)" xlink:href="#J"/><use transform="matrix(0.05,0,0,0.05,59.2,0)" xlink:href="#D"/><use transform="matrix(0.05,0,0,0.05,64.2,0)" xlink:href="#J"/><use transform="matrix(0.05,0,0,0.05,74.2,0)" xlink:href="#C"/><use transform="matrix(0.05,0,0,0.05,83.2,0)" xlink:href="#D"/><use transform="matrix(0.05,0,0,0.05,88.2,0)" xlink:href="#z"/><use transform="matrix(0.05,0,0,0.05,92.15,0)" xlink:href="#K"/><use transform="matrix(0.05,0,0,0.05,102.15,0)" xlink:href="#A"/><use transform="matrix(0.05,0,0,0.05,112.15,0)" xlink:href="#T"/><use transform="matrix(0.05,0,0,0.05,125.10000000000001,0)" xlink:href="#S"/><use transform="matrix(0.05,0,0,0.05,129.05,0)" xlink:href="#Y"/></g><path d="M232-93c-1 65-40 97-104 97C67 4 28-28 28-90v-158h33c8 89-33 224 67 224 102 0 64-133 71-224h33v155" id="aa"/><path d="M135-143c-3-34-86-38-87 0 15 53 115 12 119 90S17 21 10-45l28-5c4 36 97 45 98 0-10-56-113-15-118-90-4-57 82-63 122-42 12 7 21 19 24 35" id="ab"/><g id="h"><use transform="matrix(0.05,0,0,0.05,0,0)" xlink:href="#aa"/><use transform="matrix(0.05,0,0,0.05,12.950000000000001,0)" xlink:href="#ab"/><use transform="matrix(0.05,0,0,0.05,21.950000000000003,0)" xlink:href="#J"/><use transform="matrix(0.05,0,0,0.05,31.950000000000003,0)" xlink:href="#L"/></g><path d="M33 0v-248h34V0H33" id="ac"/><path d="M115-194c55 1 70 41 70 98S169 2 115 4C84 4 66-9 55-30l1 105H24l-1-265h31l2 30c10-21 28-34 59-34zm-8 174c40 0 45-34 45-75s-6-73-45-74c-42 0-51 32-51 76 0 43 10 73 51 73" id="ad"/><path d="M33-154v-36h34v36H33zM33 0v-36h34V0H33" id="ae"/><g id="i"><use transform="matrix(0.05,0,0,0.05,0,0)" xlink:href="#ac"/><use transform="matrix(0.05,0,0,0.05,5,0)" xlink:href="#A"/><use transform="matrix(0.05,0,0,0.05,15,0)" xlink:href="#ad"/><use transform="matrix(0.05,0,0,0.05,25,0)" xlink:href="#V"/><use transform="matrix(0.05,0,0,0.05,35,0)" xlink:href="#D"/><use transform="matrix(0.05,0,0,0.05,40,0)" xlink:href="#ae"/></g><g id="j"><use transform="matrix(0.05,0,0,0.05,0,0)" xlink:href="#I"/><use transform="matrix(0.05,0,0,0.05,12.950000000000001,0)" xlink:href="#J"/><use transform="matrix(0.05,0,0,0.05,22.950000000000003,0)" xlink:href="#C"/><use transform="matrix(0.05,0,0,0.05,31.950000000000003,0)" xlink:href="#K"/><use transform="matrix(0.05,0,0,0.05,41.95,0)" xlink:href="#L"/><use transform="matrix(0.05,0,0,0.05,47.900000000000006,0)" xlink:href="#M"/></g><g id="l"><use transform="matrix(0.05,0,0,0.05,0,0)" xlink:href="#Q"/><use transform="matrix(0.05,0,0,0.05,12,0)" xlink:href="#D"/><use transform="matrix(0.05,0,0,0.05,17,0)" xlink:href="#K"/><use transform="matrix(0.05,0,0,0.05,27,0)" xlink:href="#ad"/></g><g id="m"><use transform="matrix(0.05,0,0,0.05,0,0)" xlink:href="#Q"/><use transform="matrix(0.05,0,0,0.05,12,0)" xlink:href="#J"/><use transform="matrix(0.05,0,0,0.05,22,0)" xlink:href="#D"/><use transform="matrix(0.05,0,0,0.05,27,0)" xlink:href="#D"/><use transform="matrix(0.05,0,0,0.05,32,0)" xlink:href="#z"/><use transform="matrix(0.05,0,0,0.05,35.95,0)" xlink:href="#A"/><use transform="matrix(0.05,0,0,0.05,45.95,0)" xlink:href="#N"/><use transform="matrix(0.05,0,0,0.05,55.95,0)" xlink:href="#ab"/></g><path d="M210-169c-67 3-38 105-44 169h-31v-121c0-29-5-50-35-48C34-165 62-65 56 0H25l-1-190h30c1 10-1 24 2 32 10-44 99-50 107 0 11-21 27-35 58-36 85-2 47 119 55 194h-31v-121c0-29-5-49-35-48" id="af"/><g id="n"><use transform="matrix(0.05,0,0,0.05,0,0)" xlink:href="#Q"/><use transform="matrix(0.05,0,0,0.05,12,0)" xlink:href="#z"/><use transform="matrix(0.05,0,0,0.05,15.949999999999998,0)" xlink:href="#af"/><use transform="matrix(0.05,0,0,0.05,30.899999999999995,0)" xlink:href="#V"/><use transform="matrix(0.05,0,0,0.05,40.9,0)" xlink:href="#S"/><use transform="matrix(0.05,0,0,0.05,44.85,0)" xlink:href="#y"/><use transform="matrix(0.05,0,0,0.05,54.85,0)" xlink:href="#D"/><use transform="matrix(0.05,0,0,0.05,59.85,0)" xlink:href="#z"/><use transform="matrix(0.05,0,0,0.05,63.800000000000004,0)" xlink:href="#K"/><use transform="matrix(0.05,0,0,0.05,73.80000000000001,0)" xlink:href="#A"/></g><g id="o"><use transform="matrix(0.05,0,0,0.05,0,0)" xlink:href="#O"/><use transform="matrix(0.05,0,0,0.05,12.950000000000001,0)" xlink:href="#y"/><use transform="matrix(0.05,0,0,0.05,22.950000000000003,0)" xlink:href="#D"/><use transform="matrix(0.05,0,0,0.05,27.950000000000003,0)" xlink:href="#y"/></g><path d="M30 0v-248h187v28H63v79h144v27H63v87h162V0H30" id="ag"/><path d="M141 0L90-78 38 0H4l68-98-65-92h35l48 74 47-74h35l-64 92 68 98h-35" id="ah"/><g id="p"><use transform="matrix(0.05,0,0,0.05,0,0)" xlink:href="#ag"/><use transform="matrix(0.05,0,0,0.05,12,0)" xlink:href="#ah"/><use transform="matrix(0.05,0,0,0.05,21,0)" xlink:href="#ad"/><use transform="matrix(0.05,0,0,0.05,31,0)" xlink:href="#K"/><use transform="matrix(0.05,0,0,0.05,41,0)" xlink:href="#L"/><use transform="matrix(0.05,0,0,0.05,46.95,0)" xlink:href="#D"/></g><path d="M30-248c87 1 191-15 191 75 0 78-77 80-158 76V0H30v-248zm33 125c57 0 124 11 124-50 0-59-68-47-124-48v98" id="ai"/><g id="q"><use transform="matrix(0.05,0,0,0.05,0,0)" xlink:href="#ai"/><use transform="matrix(0.05,0,0,0.05,12,0)" xlink:href="#K"/><use transform="matrix(0.05,0,0,0.05,22,0)" xlink:href="#K"/><use transform="matrix(0.05,0,0,0.05,32,0)" xlink:href="#S"/></g><path d="M106-169C34-169 62-67 57 0H25v-261h32l-1 103c12-21 28-36 61-36 89 0 53 116 60 194h-32v-121c2-32-8-49-39-48" id="aj"/><g id="r"><use transform="matrix(0.05,0,0,0.05,0,0)" xlink:href="#P"/><use transform="matrix(0.05,0,0,0.05,10,0)" xlink:href="#J"/><use transform="matrix(0.05,0,0,0.05,20,0)" xlink:href="#A"/><use transform="matrix(0.05,0,0,0.05,30,0)" xlink:href="#N"/><use transform="matrix(0.05,0,0,0.05,40,0)" xlink:href="#D"/><use transform="matrix(0.05,0,0,0.05,45,0)" xlink:href="#aj"/></g><g id="s"><use transform="matrix(0.05,0,0,0.05,0,0)" xlink:href="#Q"/><use transform="matrix(0.05,0,0,0.05,12,0)" xlink:href="#J"/><use transform="matrix(0.05,0,0,0.05,22,0)" xlink:href="#D"/><use transform="matrix(0.05,0,0,0.05,27,0)" xlink:href="#D"/><use transform="matrix(0.05,0,0,0.05,32,0)" xlink:href="#z"/><use transform="matrix(0.05,0,0,0.05,35.95,0)" xlink:href="#A"/><use transform="matrix(0.05,0,0,0.05,45.95,0)" xlink:href="#N"/><use transform="matrix(0.05,0,0,0.05,55.95,0)" xlink:href="#ab"/></g><g id="t"><use transform="matrix(0.05,0,0,0.05,0,0)" xlink:href="#T"/><use transform="matrix(0.05,0,0,0.05,12.950000000000001,0)" xlink:href="#S"/><use transform="matrix(0.05,0,0,0.05,16.900000000000002,0)" xlink:href="#K"/><use transform="matrix(0.05,0,0,0.05,26.900000000000002,0)" xlink:href="#ab"/><use transform="matrix(0.05,0,0,0.05,35.900000000000006,0)" xlink:href="#J"/></g><g id="u"><use transform="matrix(0.05,0,0,0.05,0,0)" xlink:href="#Q"/><use transform="matrix(0.05,0,0,0.05,12,0)" xlink:href="#J"/><use transform="matrix(0.05,0,0,0.05,22,0)" xlink:href="#D"/><use transform="matrix(0.05,0,0,0.05,27,0)" xlink:href="#D"/><use transform="matrix(0.05,0,0,0.05,32,0)" xlink:href="#z"/><use transform="matrix(0.05,0,0,0.05,35.95,0)" xlink:href="#A"/><use transform="matrix(0.05,0,0,0.05,45.95,0)" xlink:href="#N"/><use transform="matrix(0.05,0,0,0.05,55.95,0)" xlink:href="#ab"/></g><g id="v"><use transform="matrix(0.05,0,0,0.05,0,0)" xlink:href="#ag"/><use transform="matrix(0.05,0,0,0.05,12,0)" xlink:href="#ah"/><use transform="matrix(0.05,0,0,0.05,21,0)" xlink:href="#z"/><use transform="matrix(0.05,0,0,0.05,24.95,0)" xlink:href="#D"/></g><g id="w"><use transform="matrix(0.05,0,0,0.05,0,0)" xlink:href="#Q"/><use transform="matrix(0.05,0,0,0.05,12,0)" xlink:href="#D"/><use transform="matrix(0.05,0,0,0.05,17,0)" xlink:href="#y"/><use transform="matrix(0.05,0,0,0.05,27,0)" xlink:href="#L"/><use transform="matrix(0.05,0,0,0.05,32.95,0)" xlink:href="#D"/></g></defs></g></svg>