<svg xmlns="http://www.w3.org/2000/svg" xmlns:xlink="http://www.w3.org/1999/xlink" xmlns:lucid="lucid" width="950.54" height="374.6"><g transform="translate(-460 -405.4)" lucid:page-tab-id="0_0"><path d="M940 620h340v140H940z" fill="#fff"/><path d="M960.6 620h20.6m10.32 0h20.6m10.3 0h20.6m10.3 0h20.62m10.3 0h20.6m10.3 0h20.62m10.3 0h20.6m10.3 0h20.62m10.3 0h20.6m10.3 0h20.6m10.32 0h10.3v9.33m0 9.34v18.66m0 9.34v18.66m0 9.34v18.66m0 9.34v18.66m0 9.34V760h-10.3m-10.3 0h-20.6m-10.32 0h-20.6m-10.3 0h-20.6m-10.3 0h-20.62m-10.3 0h-20.6m-10.3 0h-20.62m-10.3 0h-20.6m-10.3 0h-20.62m-10.3 0h-20.6m-10.3 0h-20.6m-10.32 0H940v-9.33m0-9.34v-18.66m0-9.34v-18.66m0-9.34v-18.66m0-9.34v-18.66m0-9.34V620h10.3" stroke="#000" stroke-width="2" fill="none"/><use xlink:href="#a" transform="matrix(1,0,0,1,945,625) translate(135 122.80000000000001)"/><path d="M608 480c17.67 0 32 17.9 32 40s-14.33 40-32 40h-96c-17.67 0-32-17.9-32-40s14.33-40 32-40z" stroke="#000" stroke-width="4" fill="#fff"/><use xlink:href="#b" transform="matrix(1,0,0,1,485,485) translate(44.4 27.799999999999997)"/><use xlink:href="#c" transform="matrix(1,0,0,1,485,485) translate(84.65 27.799999999999997)"/><use xlink:href="#d" transform="matrix(1,0,0,1,485,485) translate(36.599999999999994 49.4)"/><use xlink:href="#e" transform="matrix(1,0,0,1,485,485) translate(82.55 49.4)"/><path d="M928 480c17.67 0 32 17.9 32 40s-14.33 40-32 40h-96c-17.67 0-32-17.9-32-40s14.33-40 32-40z" stroke="#000" stroke-width="2" fill="#fff"/><use xlink:href="#b" transform="matrix(1,0,0,1,805,485) translate(44.4 27.799999999999997)"/><use xlink:href="#c" transform="matrix(1,0,0,1,805,485) translate(84.65 27.799999999999997)"/><use xlink:href="#f" transform="matrix(1,0,0,1,805,485) translate(49.635000000000005 49.4)"/><use xlink:href="#g" transform="matrix(1,0,0,1,805,485) translate(59.635000000000005 49.4)"/><use xlink:href="#h" transform="matrix(1,0,0,1,805,485) translate(75.135 49.4)"/><path d="M1248 480c17.67 0 32 17.9 32 40s-14.33 40-32 40h-96c-17.67 0-32-17.9-32-40s14.33-40 32-40z" stroke="#000" stroke-width="2" fill="#fff"/><use xlink:href="#i" transform="matrix(1,0,0,1,1125,485) translate(19.875 38.6)"/><use xlink:href="#j" transform="matrix(1,0,0,1,1125,485) translate(61.125 38.6)"/><path d="M480 680h160v80H480z" stroke="#000" stroke-width="2" fill="#fff"/><use xlink:href="#k" transform="matrix(1,0,0,1,485,685) translate(30.099999999999994 27.799999999999997)"/><use xlink:href="#l" transform="matrix(1,0,0,1,485,685) translate(95.95 27.799999999999997)"/><use xlink:href="#m" transform="matrix(1,0,0,1,485,685) translate(42.525 49.4)"/><path d="M784.62 499.32v2h-47v-2zm-145.75 1.75v-2h64.5v2z"/><path d="M638.9 501.07h-.63l-.8-2h1.42zM799.9 500.32l-14.28 4.63v-9.27z"/><path d="M803.12 500.32l-18.5 6V494.3zm-16.5 3.25l10.03-3.25-10.03-3.26z"/><use xlink:href="#n" transform="matrix(1,0,0,1,703.3783905221536,478.5907496957811) translate(0.004999999999999005 14.4)"/><use xlink:href="#o" transform="matrix(1,0,0,1,703.3783905221536,478.5907496957811) translate(4.122283950617284 36)"/><path d="M703.65 541.68h-47.63v-2h47.63zm98.75-.26h-65.13v-2h65.13z"/><path d="M803.6 540.9l.28.52h-1.5v-2h.62zM655.02 545.3l-14.27-4.62 14.27-4.64z"/><path d="M656.02 546.7l-18.5-6.02 18.5-6zM644 540.67l10.02 3.26v-6.52z"/><use xlink:href="#p" transform="matrix(1,0,0,1,703.647763478367,518.9461224889867) translate(0.004999999999999005 14.4)"/><use xlink:href="#o" transform="matrix(1,0,0,1,703.647763478367,518.9461224889867) translate(3.8173456790123446 36)"/><path d="M1005.28 501.02h-47.5v-2h47.5zm99.48 0h-53.96v-2h53.96z"/><path d="M957.8 501.02h-.62l-.78-1.93 1.4-.08zM1120.02 500.02l-14.26 4.64v-9.27z"/><path d="M1123.26 500.02l-18.5 6.02V494zm-16.5 3.26l10.03-3.26-10.04-3.25z"/><use xlink:href="#n" transform="matrix(1,0,0,1,1005.27502971527,478.02453775817423) translate(5.651975308641976 14.4)"/><use xlink:href="#q" transform="matrix(1,0,0,1,1005.27502971527,478.02453775817423) translate(0.004999999999999005 36.53333333333334)"/><path d="M1122.7 542.07H974.72v-2h147.96zM973.73 545.7l-14.26-4.63 14.26-4.64z"/><path d="M974.73 547.08l-18.5-6 18.5-6.03zm-12.03-6l10.03 3.25v-6.52zM1123.6 540.9l.64 1.17h-1.58v-2h.6zM602.57 477h-2v-38H576.4v-2h26.17zm-59.8-38H518.6v20.5h-2V437h26.17z"/><path d="M602.57 478h-2v-1.03h2zM517.6 474.76l-4.64-14.26h9.27z"/><path d="M517.6 478l-6.02-18.5h12.02zm-3.27-16.5l3.26 10.03 3.25-10.03z"/><use xlink:href="#p" transform="matrix(1,0,0,1,542.767982051667,416.4) translate(0.004999999999999005 14.4)"/><use xlink:href="#o" transform="matrix(1,0,0,1,542.767982051667,416.4) translate(3.8173456790123446 36)"/><path d="M922.65 478h-2v-38H899.5v-2h23.15zM864 440h-21.14v20.5h-2V438H864z"/><path d="M922.65 479h-2v-1.03h2zM841.86 475.76l-4.63-14.26h9.27z"/><path d="M841.86 479l-6-18.5h12zm-3.26-16.5l3.26 10.03 3.26-10.03z"/><use xlink:href="#r" transform="matrix(1,0,0,1,864.0080913089348,417.4) translate(0.004999999999999005 14.4)"/><use xlink:href="#o" transform="matrix(1,0,0,1,864.0080913089348,417.4) translate(4.754999999999999 36)"/><path d="M1241.27 478h-2v-38h-21.15v-2h23.15zm-58.65-38h-21.14v20.5h-2V438h23.14z"/><path d="M1241.27 479h-2v-1.03h2zM1160.48 475.76l-4.64-14.26h9.27z"/><path d="M1160.48 479l-6-18.5h12zm-3.26-16.5l3.26 10.03 3.26-10.03z"/><use xlink:href="#r" transform="matrix(1,0,0,1,1182.6242806584853,417.4) translate(0.004999999999999005 14.4)"/><use xlink:href="#o" transform="matrix(1,0,0,1,1182.6242806584853,417.4) translate(4.754999999999999 36)"/><path d="M604.05 599h260.78v2H602.05v-20.5h2zm556.2 2h-261.8v-2h259.8v-37h2z"/><path d="M1160.24 562.03h-2V561h2zM607.68 579.5h-9.27l4.65-14.26z"/><path d="M609.06 580.5h-12.02l6-18.5zm-9.27-2h6.5l-3.25-10.03z"/><use xlink:href="#p" transform="matrix(1,0,0,1,864.8322366430008,578.4) translate(0.004999999999999005 14.4)"/><use xlink:href="#o" transform="matrix(1,0,0,1,864.8322366430008,578.4) translate(3.8173456790123446 36)"/><path d="M560.7 659.8l.3.7-.3.7-.7.3-.7-.3-.3-.7.3-.7.7-.3zm0-4.07l.3.7-.3.7-.7.3-.7-.3-.3-.7.3-.7.7-.3zm0-4.06l.3.7-.3.7-.7.3-.7-.3-.3-.7.3-.7.7-.3zm0-48.75l.3.7-.3.7-.7.3-.7-.3-.3-.7.3-.7.7-.3zm0-4.07l.3.7-.3.72-.7.3-.7-.3-.3-.7.3-.72.7-.3zm0-4.06l.3.7-.3.7-.7.3-.7-.3-.3-.7.3-.7.7-.3zm0-4.07l.3.7-.3.7-.7.3-.7-.3-.3-.7.3-.7.7-.3zm0-4.06l.3.7-.3.7-.7.3-.7-.3-.3-.7.3-.7.7-.3zm0-4.07l.3.7-.3.72-.7.3-.7-.3-.3-.7.3-.72.7-.3zm0-4.06l.3.7-.3.72-.7.3-.7-.3-.3-.7.3-.72.7-.3zm0-4.06l.3.7-.3.7-.7.3-.7-.3-.3-.7.3-.7.7-.3zm0-4.06l.3.7-.3.7-.7.3-.7-.3-.3-.7.3-.7.7-.3zm0-4.06l.3.7-.3.7-.7.3-.7-.3-.3-.7.3-.7.7-.3zm0-4.07l.3.7-.3.7-.7.3-.7-.3-.3-.7.3-.7.7-.3z"/><path d="M561 563.03h-2V562h2zM560 675.76l-4.64-14.26h9.28z"/><path d="M560 679l-6-18.5h12zm-3.26-16.5l3.26 10.03 3.26-10.03z"/><g><use xlink:href="#s" transform="matrix(1,0,0,1,536.2,606.1283335588621) translate(0.004999999999999005 14.4)"/><use xlink:href="#t" transform="matrix(1,0,0,1,536.2,606.1283335588621) translate(11.054999999999996 36)"/></g><path d="M1088 640c17.67 0 32 17.9 32 40s-14.33 40-32 40h-96c-17.67 0-32-17.9-32-40s14.33-40 32-40z" stroke="#000" stroke-width="2" fill="#fff"/><g><use xlink:href="#u" transform="matrix(1,0,0,1,965,645) translate(29.025 38.6)"/><use xlink:href="#v" transform="matrix(1,0,0,1,965,645) translate(76.025 38.6)"/></g><path d="M1134.26 681H1122v-2h12.26zm96.2 0H1216v-2h14.45z"/><path d="M1122.03 681h-1.1l.07-1-.03-1h1.06zM1245.72 680l-14.27 4.64v-9.28z"/><path d="M1248.95 680l-18.5 6v-12zm-16.5 3.26l10.03-3.26-10.03-3.26z"/><g><use xlink:href="#w" transform="matrix(1,0,0,1,1134.2596677031972,636.8) translate(0.005000000000002558 14.4)"/><use xlink:href="#x" transform="matrix(1,0,0,1,1134.2596677031972,636.8) translate(0.529999999999994 36)"/><use xlink:href="#y" transform="matrix(1,0,0,1,1134.2596677031972,636.8) translate(9.455000000000002 57.6)"/><use xlink:href="#z" transform="matrix(1,0,0,1,1134.2596677031972,636.8) translate(13.380000000000003 79.20000000000002)"/></g><path d="M1270.94 489.06L1280 480v-20l20 20v-20l6.92-6.92" stroke="#000" stroke-width="2" fill="none"/><path d="M1271.67 489.75l-.75.74-.02-.03-1.35-1.43.7-.7z"/><path d="M1317.7 442.3l-6.8 13.35-6.55-6.55z" stroke="#000" stroke-width="2"/><g><use xlink:href="#A" transform="matrix(1,0,0,1,1305.742127837058,459.7118224083761) translate(0.005000000000002558 14.4)"/><use xlink:href="#B" transform="matrix(1,0,0,1,1305.742127837058,459.7118224083761) translate(47.85500000000001 14.4)"/><use xlink:href="#C" transform="matrix(1,0,0,1,1305.742127837058,459.7118224083761) translate(24.430000000000007 36)"/></g><path d="M640.7 679.3L660 660v-20l20 20v-20l6.92-6.92M640.73 679.27l-.73.73" stroke="#000" stroke-width="2" fill="none"/><path d="M697.7 622.3l-6.8 13.35-6.55-6.55z" stroke="#000" stroke-width="2"/><g><use xlink:href="#D" transform="matrix(1,0,0,1,688,642.6911267371637) translate(0.005000000000002558 14.4)"/><use xlink:href="#E" transform="matrix(1,0,0,1,688,642.6911267371637) translate(47.85500000000001 14.4)"/></g><defs><path d="M30 0v-248h33v221h125V0H30" id="F"/><path d="M100-194c63 0 86 42 84 106H49c0 40 14 67 53 68 26 1 43-12 49-29l28 8c-11 28-37 45-77 45C44 4 14-33 15-96c1-61 26-98 85-98zm52 81c6-60-76-77-97-28-3 7-6 17-6 28h103" id="G"/><path d="M177-190C167-65 218 103 67 71c-23-6-38-20-44-43l32-5c15 47 100 32 89-28v-30C133-14 115 1 83 1 29 1 15-40 15-95c0-56 16-97 71-98 29-1 48 16 59 35 1-10 0-23 2-32h30zM94-22c36 0 50-32 50-73 0-42-14-75-50-75-39 0-46 34-46 75s6 73 46 73" id="H"/><path d="M117-194c89-4 53 116 60 194h-32v-121c0-31-8-49-39-48C34-167 62-67 57 0H25l-1-190h30c1 10-1 24 2 32 11-22 29-35 61-36" id="I"/><path d="M85-194c31 0 48 13 60 33l-1-100h32l1 261h-30c-2-10 0-23-3-31C134-8 116 4 85 4 32 4 16-35 15-94c0-66 23-100 70-100zm9 24c-40 0-46 34-46 75 0 40 6 74 45 74 42 0 51-32 51-76 0-42-9-74-50-73" id="J"/><g id="a"><use transform="matrix(0.05,0,0,0.05,0,0)" xlink:href="#F"/><use transform="matrix(0.05,0,0,0.05,10,0)" xlink:href="#G"/><use transform="matrix(0.05,0,0,0.05,20,0)" xlink:href="#H"/><use transform="matrix(0.05,0,0,0.05,30,0)" xlink:href="#G"/><use transform="matrix(0.05,0,0,0.05,40,0)" xlink:href="#I"/><use transform="matrix(0.05,0,0,0.05,50,0)" xlink:href="#J"/></g><path d="M266 0h-40l-56-210L115 0H75L2-248h35L96-30l15-64 43-154h32l59 218 59-218h35" id="K"/><path d="M141-36C126-15 110 5 73 4 37 3 15-17 15-53c-1-64 63-63 125-63 3-35-9-54-41-54-24 1-41 7-42 31l-33-3c5-37 33-52 76-52 45 0 72 20 72 64v82c-1 20 7 32 28 27v20c-31 9-61-2-59-35zM48-53c0 20 12 33 32 33 41-3 63-29 60-74-43 2-92-5-92 41" id="L"/><path d="M24-231v-30h32v30H24zM24 0v-190h32V0H24" id="M"/><path d="M59-47c-2 24 18 29 38 22v24C64 9 27 4 27-40v-127H5v-23h24l9-43h21v43h35v23H59v120" id="N"/><g id="b"><use transform="matrix(0.05,0,0,0.05,0,0)" xlink:href="#K"/><use transform="matrix(0.05,0,0,0.05,16.3,0)" xlink:href="#L"/><use transform="matrix(0.05,0,0,0.05,26.3,0)" xlink:href="#M"/><use transform="matrix(0.05,0,0,0.05,30.25,0)" xlink:href="#N"/></g><path d="M101-234c-31-9-42 10-38 44h38v23H63V0H32v-167H5v-23h27c-7-52 17-82 69-68v24" id="O"/><path d="M100-194c62-1 85 37 85 99 1 63-27 99-86 99S16-35 15-95c0-66 28-99 85-99zM99-20c44 1 53-31 53-75 0-43-8-75-51-75s-53 32-53 75 10 74 51 75" id="P"/><path d="M114-163C36-179 61-72 57 0H25l-1-190h30c1 12-1 29 2 39 6-27 23-49 58-41v29" id="Q"/><g id="c"><use transform="matrix(0.05,0,0,0.05,0,0)" xlink:href="#O"/><use transform="matrix(0.05,0,0,0.05,5,0)" xlink:href="#P"/><use transform="matrix(0.05,0,0,0.05,15,0)" xlink:href="#Q"/></g><path d="M96-169c-40 0-48 33-48 73s9 75 48 75c24 0 41-14 43-38l32 2c-6 37-31 61-74 61-59 0-76-41-82-99-10-93 101-131 147-64 4 7 5 14 7 22l-32 3c-4-21-16-35-41-35" id="R"/><path d="M24 0v-261h32V0H24" id="S"/><path d="M135-143c-3-34-86-38-87 0 15 53 115 12 119 90S17 21 10-45l28-5c4 36 97 45 98 0-10-56-113-15-118-90-4-57 82-63 122-42 12 7 21 19 24 35" id="T"/><g id="d"><use transform="matrix(0.05,0,0,0.05,0,0)" xlink:href="#R"/><use transform="matrix(0.05,0,0,0.05,9,0)" xlink:href="#S"/><use transform="matrix(0.05,0,0,0.05,12.949999999999998,0)" xlink:href="#L"/><use transform="matrix(0.05,0,0,0.05,22.95,0)" xlink:href="#T"/><use transform="matrix(0.05,0,0,0.05,31.950000000000003,0)" xlink:href="#T"/></g><path d="M190 0L58-211 59 0H30v-248h39L202-35l-2-213h31V0h-41" id="U"/><path d="M84 4C-5 8 30-112 23-190h32v120c0 31 7 50 39 49 72-2 45-101 50-169h31l1 190h-30c-1-10 1-25-2-33-11 22-28 36-60 37" id="V"/><g id="e"><use transform="matrix(0.05,0,0,0.05,0,0)" xlink:href="#U"/><use transform="matrix(0.05,0,0,0.05,12.950000000000001,0)" xlink:href="#V"/><use transform="matrix(0.05,0,0,0.05,22.950000000000003,0)" xlink:href="#S"/><use transform="matrix(0.05,0,0,0.05,26.900000000000002,0)" xlink:href="#S"/></g><use transform="matrix(0.05,0,0,0.05,0,0)" xlink:href="#N" id="f"/><path d="M18-150v-26h174v26H18zm0 90v-26h174v26H18" id="W"/><use transform="matrix(0.05,0,0,0.05,0,0)" xlink:href="#W" id="g"/><path d="M210-169c-67 3-38 105-44 169h-31v-121c0-29-5-50-35-48C34-165 62-65 56 0H25l-1-190h30c1 10-1 24 2 32 10-44 99-50 107 0 11-21 27-35 58-36 85-2 47 119 55 194h-31v-121c0-29-5-49-35-48" id="X"/><g id="h"><use transform="matrix(0.05,0,0,0.05,0,0)" xlink:href="#N"/><use transform="matrix(0.034999999999999996,0,0,0.034999999999999996,5,2.5199999999999996)" xlink:href="#X"/><use transform="matrix(0.034999999999999996,0,0,0.034999999999999996,15.464999999999998,2.5199999999999996)" xlink:href="#M"/><use transform="matrix(0.034999999999999996,0,0,0.034999999999999996,18.229999999999997,2.5199999999999996)" xlink:href="#I"/></g><path d="M127-220V0H93v-220H8v-28h204v28h-85" id="Y"/><g id="i"><use transform="matrix(0.05,0,0,0.05,0,0)" xlink:href="#Y"/><use transform="matrix(0.05,0,0,0.05,10.3,0)" xlink:href="#V"/><use transform="matrix(0.05,0,0,0.05,20.3,0)" xlink:href="#Q"/><use transform="matrix(0.05,0,0,0.05,26.25,0)" xlink:href="#I"/></g><g id="j"><use transform="matrix(0.05,0,0,0.05,0,0)" xlink:href="#J"/><use transform="matrix(0.05,0,0,0.05,10,0)" xlink:href="#G"/><use transform="matrix(0.05,0,0,0.05,20,0)" xlink:href="#N"/><use transform="matrix(0.05,0,0,0.05,25,0)" xlink:href="#G"/><use transform="matrix(0.05,0,0,0.05,35,0)" xlink:href="#R"/><use transform="matrix(0.05,0,0,0.05,44,0)" xlink:href="#N"/><use transform="matrix(0.05,0,0,0.05,49,0)" xlink:href="#G"/><use transform="matrix(0.05,0,0,0.05,59,0)" xlink:href="#J"/></g><path d="M240 0l2-218c-23 76-54 145-80 218h-23L58-218 59 0H30v-248h44l77 211c21-75 51-140 76-211h43V0h-30" id="Z"/><g id="k"><use transform="matrix(0.05,0,0,0.05,0,0)" xlink:href="#Z"/><use transform="matrix(0.05,0,0,0.05,14.950000000000001,0)" xlink:href="#M"/><use transform="matrix(0.05,0,0,0.05,18.900000000000002,0)" xlink:href="#T"/><use transform="matrix(0.05,0,0,0.05,27.900000000000002,0)" xlink:href="#T"/><use transform="matrix(0.05,0,0,0.05,36.900000000000006,0)" xlink:href="#M"/><use transform="matrix(0.05,0,0,0.05,40.85000000000001,0)" xlink:href="#I"/><use transform="matrix(0.05,0,0,0.05,50.85000000000001,0)" xlink:href="#H"/></g><path d="M115-194c55 1 70 41 70 98S169 2 115 4C84 4 66-9 55-30l1 105H24l-1-265h31l2 30c10-21 28-34 59-34zm-8 174c40 0 45-34 45-75s-6-73-45-74c-42 0-51 32-51 76 0 43 10 73 51 73" id="aa"/><g id="l"><use transform="matrix(0.05,0,0,0.05,0,0)" xlink:href="#S"/><use transform="matrix(0.05,0,0,0.05,3.95,0)" xlink:href="#L"/><use transform="matrix(0.05,0,0,0.05,13.949999999999998,0)" xlink:href="#aa"/></g><g id="m"><use transform="matrix(0.05,0,0,0.05,0,0)" xlink:href="#J"/><use transform="matrix(0.05,0,0,0.05,10,0)" xlink:href="#G"/><use transform="matrix(0.05,0,0,0.05,20,0)" xlink:href="#N"/><use transform="matrix(0.05,0,0,0.05,25,0)" xlink:href="#G"/><use transform="matrix(0.05,0,0,0.05,35,0)" xlink:href="#R"/><use transform="matrix(0.05,0,0,0.05,44,0)" xlink:href="#N"/><use transform="matrix(0.05,0,0,0.05,49,0)" xlink:href="#P"/><use transform="matrix(0.05,0,0,0.05,59,0)" xlink:href="#Q"/></g><path d="M190-63c-7 42-38 67-86 67-59 0-84-38-90-98-12-110 154-137 174-36l-49 2c-2-19-15-32-35-32-30 0-35 28-38 64-6 74 65 87 74 30" id="ab"/><path d="M25 0v-261h50V0H25" id="ac"/><path fill="#222" d="M15-148v-39h180v39H15zm0 97v-39h180v39H15" id="ad"/><path fill="#222" d="M101-251c68 0 84 54 84 127C185-50 166 4 99 4S15-52 14-124c-1-75 17-127 87-127zm-1 216c37-5 36-46 36-89s4-89-36-89c-39 0-36 45-36 89 0 43-3 85 36 89" id="ae"/><g id="n"><use transform="matrix(0.05,0,0,0.05,0,0)" xlink:href="#ab"/><use transform="matrix(0.05,0,0,0.05,10,0)" xlink:href="#ac"/><use transform="matrix(0.04691358024691358,0,0,0.04691358024691358,15,0)" xlink:href="#ad"/><use transform="matrix(0.04691358024691358,0,0,0.04691358024691358,24.85185185185186,0)" xlink:href="#ae"/></g><path d="M51-54c-9 22 5 41 31 30L79-1C43 14 10-4 19-52l22-115H19l5-23h22l19-43h21l-9 43h35l-4 23H73" id="af"/><path d="M123-107v75H97v-75H23v-26h74v-75h26v75h75v26h-75" id="ag"/><g id="o"><use transform="matrix(0.05,0,0,0.05,0,0)" xlink:href="#af"/><use transform="matrix(0.05,0,0,0.05,5,0)" xlink:href="#ag"/><use transform="matrix(0.05,0,0,0.05,15.5,0)" xlink:href="#ag"/></g><path fill="#222" d="M81-51L58-7H21l23-44H5v-39h58l29-58H5v-39h106l23-46h37l-23 46h45v39h-64l-29 58h93v39H81" id="ah"/><g id="p"><use transform="matrix(0.05,0,0,0.05,0,0)" xlink:href="#ab"/><use transform="matrix(0.05,0,0,0.05,10,0)" xlink:href="#ac"/><use transform="matrix(0.04691358024691358,0,0,0.04691358024691358,15,0)" xlink:href="#ah"/><use transform="matrix(0.04691358024691358,0,0,0.04691358024691358,24.241975308641976,0)" xlink:href="#ae"/></g><path d="M115-3C79 11 28 4 28-45v-112H4v-33h27l15-45h31v45h36v33H77v99c-1 23 16 31 38 25v30" id="ai"/><path fill="#222" d="M9-50v-40l146-49L9-188v-40l180 61v56zM9 0v-39h180V0H9" id="aj"/><path fill="#222" d="M115-3C79 11 28 4 28-45v-112H4v-33h27l15-45h31v45h36v33H77v99c-1 23 16 31 38 25v30" id="ak"/><path fill="#222" d="M220-157c-53 9-28 100-34 157h-49v-107c1-27-5-49-29-50C55-147 81-57 75 0H25l-1-190h47c2 12-1 28 3 38 10-53 101-56 108 0 13-22 24-43 59-42 82 1 51 116 57 194h-49v-107c-1-25-5-48-29-50" id="al"/><path fill="#222" d="M25-224v-37h50v37H25zM25 0v-190h50V0H25" id="am"/><path fill="#222" d="M135-194c87-1 58 113 63 194h-50c-7-57 23-157-34-157-59 0-34 97-39 157H25l-1-190h47c2 12-1 28 3 38 12-26 28-41 61-42" id="an"/><g id="q"><use transform="matrix(0.05,0,0,0.05,0,0)" xlink:href="#ai"/><use transform="matrix(0.05185185185185186,0,0,0.05185185185185186,5.95,0)" xlink:href="#aj"/><use transform="matrix(0.05185185185185186,0,0,0.05185185185185186,16.164814814814815,0)" xlink:href="#ak"/><use transform="matrix(0.0362962962962963,0,0,0.0362962962962963,22.335185185185185,2.6133333333333333)" xlink:href="#al"/><use transform="matrix(0.0362962962962963,0,0,0.0362962962962963,33.95,2.6133333333333333)" xlink:href="#am"/><use transform="matrix(0.0362962962962963,0,0,0.0362962962962963,37.579629629629636,2.6133333333333333)" xlink:href="#an"/></g><path d="M15-148v-39h180v39H15zm0 97v-39h180v39H15" id="ao"/><path d="M101-251c68 0 84 54 84 127C185-50 166 4 99 4S15-52 14-124c-1-75 17-127 87-127zm-1 216c37-5 36-46 36-89s4-89-36-89c-39 0-36 45-36 89 0 43-3 85 36 89" id="ap"/><g id="r"><use transform="matrix(0.05,0,0,0.05,0,0)" xlink:href="#ab"/><use transform="matrix(0.05,0,0,0.05,10,0)" xlink:href="#ac"/><use transform="matrix(0.05,0,0,0.05,15,0)" xlink:href="#ao"/><use transform="matrix(0.05,0,0,0.05,25.5,0)" xlink:href="#ap"/></g><path d="M15-22v-40l146-57-146-57v-40l181 69v56" id="aq"/><path d="M220-157c-53 9-28 100-34 157h-49v-107c1-27-5-49-29-50C55-147 81-57 75 0H25l-1-190h47c2 12-1 28 3 38 10-53 101-56 108 0 13-22 24-43 59-42 82 1 51 116 57 194h-49v-107c-1-25-5-48-29-50" id="ar"/><path d="M133-34C117-15 103 5 69 4 32 3 11-16 11-54c-1-60 55-63 116-61 1-26-3-47-28-47-18 1-26 9-28 27l-52-2c7-38 36-58 82-57s74 22 75 68l1 82c-1 14 12 18 25 15v27c-30 8-71 5-69-32zm-48 3c29 0 43-24 42-57-32 0-66-3-65 30 0 17 8 27 23 27" id="as"/><path d="M144 0l-44-69L55 0H2l70-98-66-92h53l41 62 40-62h54l-67 91 71 99h-54" id="at"/><g id="s"><use transform="matrix(0.05,0,0,0.05,0,0)" xlink:href="#ai"/><use transform="matrix(0.05,0,0,0.05,5.95,0)" xlink:href="#aq"/><use transform="matrix(0.05,0,0,0.05,16.45,0)" xlink:href="#ai"/><use transform="matrix(0.034999999999999996,0,0,0.034999999999999996,22.4,2.5199999999999996)" xlink:href="#ar"/><use transform="matrix(0.034999999999999996,0,0,0.034999999999999996,33.599999999999994,2.5199999999999996)" xlink:href="#as"/><use transform="matrix(0.034999999999999996,0,0,0.034999999999999996,40.599999999999994,2.5199999999999996)" xlink:href="#at"/></g><path d="M23-150v-26h175v26H23zm0 90v-26h175v26H23" id="au"/><path d="M16-82c0-90 25-169 113-169 48 0 68 33 68 82C197-79 170 4 84 4 37 4 16-31 16-82zm30 5c0 32 11 55 40 55 69 0 76-79 80-149 2-32-10-55-39-55-69 0-81 81-81 149" id="av"/><g id="t"><use transform="matrix(0.05,0,0,0.05,0,0)" xlink:href="#af"/><use transform="matrix(0.05,0,0,0.05,5,0)" xlink:href="#au"/><use transform="matrix(0.05,0,0,0.05,15.5,0)" xlink:href="#av"/></g><path d="M185-189c-5-48-123-54-124 2 14 75 158 14 163 119 3 78-121 87-175 55-17-10-28-26-33-46l33-7c5 56 141 63 141-1 0-78-155-14-162-118-5-82 145-84 179-34 5 7 8 16 11 25" id="aw"/><g id="u"><use transform="matrix(0.05,0,0,0.05,0,0)" xlink:href="#aw"/><use transform="matrix(0.05,0,0,0.05,12,0)" xlink:href="#N"/><use transform="matrix(0.05,0,0,0.05,17,0)" xlink:href="#L"/><use transform="matrix(0.05,0,0,0.05,27,0)" xlink:href="#N"/><use transform="matrix(0.05,0,0,0.05,32,0)" xlink:href="#G"/></g><g id="v"><use transform="matrix(0.05,0,0,0.05,0,0)" xlink:href="#I"/><use transform="matrix(0.05,0,0,0.05,10,0)" xlink:href="#L"/><use transform="matrix(0.05,0,0,0.05,20,0)" xlink:href="#X"/><use transform="matrix(0.05,0,0,0.05,34.95,0)" xlink:href="#G"/></g><path d="M135-150c-39-12-60 13-60 57V0H25l-1-190h47c2 13-1 29 3 40 6-28 27-53 61-41v41" id="ax"/><path d="M135-194c87-1 58 113 63 194h-50c-7-57 23-157-34-157-59 0-34 97-39 157H25l-1-190h47c2 12-1 28 3 38 12-26 28-41 61-42" id="ay"/><path d="M137-138c1-29-70-34-71-4 15 46 118 7 119 86 1 83-164 76-172 9l43-7c4 19 20 25 44 25 33 8 57-30 24-41C81-84 22-81 20-136c-2-80 154-74 161-7" id="az"/><path d="M25-224v-37h50v37H25zM25 0v-190h50V0H25" id="aA"/><path d="M110-194c64 0 96 36 96 99 0 64-35 99-97 99-61 0-95-36-95-99 0-62 34-99 96-99zm-1 164c35 0 45-28 45-65 0-40-10-65-43-65-34 0-45 26-45 65 0 36 10 65 43 65" id="aB"/><g id="w"><use transform="matrix(0.05,0,0,0.05,0,0)" xlink:href="#ai"/><use transform="matrix(0.05,0,0,0.05,5.95,0)" xlink:href="#ax"/><use transform="matrix(0.05,0,0,0.05,12.949999999999998,0)" xlink:href="#as"/><use transform="matrix(0.05,0,0,0.05,22.95,0)" xlink:href="#ay"/><use transform="matrix(0.05,0,0,0.05,33.9,0)" xlink:href="#az"/><use transform="matrix(0.05,0,0,0.05,43.9,0)" xlink:href="#aA"/><use transform="matrix(0.05,0,0,0.05,48.9,0)" xlink:href="#ai"/><use transform="matrix(0.05,0,0,0.05,54.85,0)" xlink:href="#aA"/><use transform="matrix(0.05,0,0,0.05,59.85,0)" xlink:href="#aB"/><use transform="matrix(0.05,0,0,0.05,70.8,0)" xlink:href="#ay"/></g><path d="M88-194c31-1 46 15 58 34l-1-101h50l1 261h-48c-2-10 0-23-3-31C134-8 116 4 84 4 32 4 16-41 15-95c0-56 19-97 73-99zm17 164c33 0 40-30 41-66 1-37-9-64-41-64s-38 30-39 65c0 43 13 65 39 65" id="aC"/><g id="x"><use transform="matrix(0.05,0,0,0.05,0,0)" xlink:href="#ab"/><use transform="matrix(0.05,0,0,0.05,10,0)" xlink:href="#aB"/><use transform="matrix(0.05,0,0,0.05,20.950000000000003,0)" xlink:href="#ay"/><use transform="matrix(0.05,0,0,0.05,31.900000000000006,0)" xlink:href="#aC"/><use transform="matrix(0.05,0,0,0.05,42.85000000000001,0)" xlink:href="#aA"/><use transform="matrix(0.05,0,0,0.05,47.85000000000001,0)" xlink:href="#ai"/><use transform="matrix(0.05,0,0,0.05,53.80000000000001,0)" xlink:href="#aA"/><use transform="matrix(0.05,0,0,0.05,58.80000000000001,0)" xlink:href="#aB"/><use transform="matrix(0.05,0,0,0.05,69.75000000000001,0)" xlink:href="#ay"/></g><path d="M89 0H52L20-190h33L74-25l89-165h34" id="aD"/><path d="M165-48c-4 18 1 34 23 27l-3 20c-29 8-62 0-52-35h-2C116-14 99 4 63 4 30 4 8-16 8-49c0-68 71-67 138-67 10-26 0-56-31-54-26 1-42 9-47 31l-32-5c8-67 160-71 144 15-5 28-9 54-15 81zM42-50c3 52 80 24 89-6 7-12 7-24 11-38-47 1-103-4-100 44" id="aE"/><path d="M66-151c12-25 30-51 66-40l-6 26C45-176 58-65 38 0H6l36-190h30" id="aF"/><path d="M50-231l6-30h32l-6 30H50zM6 0l37-190h31L37 0H6" id="aG"/><path d="M68-162c25-46 127-43 121 31C183-60 169 1 98 4 69 5 53-11 43-31L36 0H5l52-261h31zm88 36c2-27-9-43-34-43-55 0-70 51-70 103 0 29 15 45 43 46 52 0 58-58 61-106" id="aH"/><path d="M6 0l50-261h32L37 0H6" id="aI"/><path d="M111-194c62-3 86 47 72 106H45c-7 38 6 69 45 68 27-1 43-14 53-32l24 11C152-15 129 4 87 4 38 3 12-23 12-71c0-70 32-119 99-123zm44 81c14-66-71-72-95-28-4 8-8 17-11 28h106" id="aJ"/><g id="y"><use transform="matrix(0.05,0,0,0.05,0,0)" xlink:href="#aD"/><use transform="matrix(0.05,0,0,0.05,9,0)" xlink:href="#aE"/><use transform="matrix(0.05,0,0,0.05,19,0)" xlink:href="#aF"/><use transform="matrix(0.05,0,0,0.05,24.95,0)" xlink:href="#aG"/><use transform="matrix(0.05,0,0,0.05,28.899999999999995,0)" xlink:href="#aE"/><use transform="matrix(0.05,0,0,0.05,38.9,0)" xlink:href="#aH"/><use transform="matrix(0.05,0,0,0.05,48.9,0)" xlink:href="#aI"/><use transform="matrix(0.05,0,0,0.05,52.85,0)" xlink:href="#aJ"/></g><path d="M67 3c-93-2-31-127-26-193h32L48-50c-3 39 53 32 70 12 30-34 30-101 43-152h32L157 0h-30c1-10 6-24 4-33-14 20-29 37-64 36" id="aK"/><path d="M67-162c32-53 139-36 121 50C175-51 163 2 97 4 68 4 52-11 42-31 38 6 28 39 22 75H-9l50-265h29c-1 10 0 20-3 28zm89 36c0-26-10-43-35-43-54 0-67 50-69 103-1 29 14 45 42 46 53 0 62-58 62-106" id="aL"/><path d="M133-28C103 26-5 8 13-77c13-62 24-115 90-117 29-1 46 15 56 35l19-102h32L160 0h-30zM45-64c-2 27 10 43 35 43 54-1 69-50 69-103 0-29-15-46-42-46-53-1-58 58-62 106" id="aM"/><g id="z"><use transform="matrix(0.05,0,0,0.05,0,0)" xlink:href="#aK"/><use transform="matrix(0.05,0,0,0.05,10,0)" xlink:href="#aL"/><use transform="matrix(0.05,0,0,0.05,20,0)" xlink:href="#aM"/><use transform="matrix(0.05,0,0,0.05,30,0)" xlink:href="#aE"/><use transform="matrix(0.05,0,0,0.05,40,0)" xlink:href="#af"/><use transform="matrix(0.05,0,0,0.05,45,0)" xlink:href="#aJ"/></g><path d="M125-24c46 0 70-25 89-51l25 16C214-24 183 4 123 4 8 4-5-146 60-208c32-50 158-61 191-5 5 7 9 14 11 22l-32 10c-9-28-33-43-69-43-74 0-108 51-108 125 0 46 24 75 72 75" id="aN"/><g id="A"><use transform="matrix(0.05,0,0,0.05,0,0)" xlink:href="#aN"/><use transform="matrix(0.05,0,0,0.05,12.950000000000001,0)" xlink:href="#aI"/><use transform="matrix(0.05,0,0,0.05,16.900000000000002,0)" xlink:href="#aJ"/><use transform="matrix(0.05,0,0,0.05,26.900000000000002,0)" xlink:href="#aE"/><use transform="matrix(0.05,0,0,0.05,36.900000000000006,0)" xlink:href="#aF"/></g><path d="M76-167L44 0H12l33-167H18l4-23h27c3-47 25-81 82-69l-4 24c-35-8-44 15-46 45h37l-5 23H76" id="aO"/><g id="B"><use transform="matrix(0.05,0,0,0.05,0,0)" xlink:href="#aH"/><use transform="matrix(0.05,0,0,0.05,10,0)" xlink:href="#aK"/><use transform="matrix(0.05,0,0,0.05,20,0)" xlink:href="#aO"/><use transform="matrix(0.05,0,0,0.05,25,0)" xlink:href="#aO"/><use transform="matrix(0.05,0,0,0.05,30,0)" xlink:href="#aJ"/><use transform="matrix(0.05,0,0,0.05,40,0)" xlink:href="#aF"/></g><g id="C"><use transform="matrix(0.05,0,0,0.05,0,0)" xlink:href="#aI"/><use transform="matrix(0.05,0,0,0.05,3.95,0)" xlink:href="#aE"/><use transform="matrix(0.05,0,0,0.05,13.949999999999998,0)" xlink:href="#aL"/><use transform="matrix(0.05,0,0,0.05,23.95,0)" xlink:href="#ag"/><use transform="matrix(0.05,0,0,0.05,34.45,0)" xlink:href="#ag"/></g><path d="M212-179c-10-28-35-45-73-45-59 0-87 40-87 99 0 60 29 101 89 101 43 0 62-24 78-52l27 14C228-24 195 4 139 4 59 4 22-46 18-125c-6-104 99-153 187-111 19 9 31 26 39 46" id="aP"/><g id="D"><use transform="matrix(0.05,0,0,0.05,0,0)" xlink:href="#aP"/><use transform="matrix(0.05,0,0,0.05,12.950000000000001,0)" xlink:href="#S"/><use transform="matrix(0.05,0,0,0.05,16.900000000000002,0)" xlink:href="#G"/><use transform="matrix(0.05,0,0,0.05,26.900000000000002,0)" xlink:href="#L"/><use transform="matrix(0.05,0,0,0.05,36.900000000000006,0)" xlink:href="#Q"/></g><path d="M115-194c53 0 69 39 70 98 0 66-23 100-70 100C84 3 66-7 56-30L54 0H23l1-261h32v101c10-23 28-34 59-34zm-8 174c40 0 45-34 45-75 0-40-5-75-45-74-42 0-51 32-51 76 0 43 10 73 51 73" id="aQ"/><g id="E"><use transform="matrix(0.05,0,0,0.05,0,0)" xlink:href="#aQ"/><use transform="matrix(0.05,0,0,0.05,10,0)" xlink:href="#V"/><use transform="matrix(0.05,0,0,0.05,20,0)" xlink:href="#O"/><use transform="matrix(0.05,0,0,0.05,24.65,0)" xlink:href="#O"/><use transform="matrix(0.05,0,0,0.05,29.649999999999995,0)" xlink:href="#G"/><use transform="matrix(0.05,0,0,0.05,39.65,0)" xlink:href="#Q"/></g></defs></g></svg>